HIERARCHY
ROOT Hips
{
  OFFSET 3.13124 94.3669 -3.18751
  CHANNELS  6 Xposition Yposition Zposition Zrotation Xrotation Yrotation
  JOINT LeftUpLeg
  {
    OFFSET 8.64259 1.95398 -2.38835
    CHANNELS 3 Zrotation Xrotation Yrotation
    JOINT LeftLeg
    {
      OFFSET 43.7702 0 0
      CHANNELS 3 Zrotation Xrotation Yrotation
      JOINT LeftFoot
      {
        OFFSET 40.6238 0 0
        CHANNELS 3 Zrotation Xrotation Yrotation
        JOINT LeftToeBase
        {
          OFFSET 12.7242 0 0
          CHANNELS 3 Zrotation Xrotation Yrotation
          End Site
          {
            OFFSET 0 0 0
          }
        }
      }
    }
  }
  JOINT RightUpLeg
  {
    OFFSET -8.2249 1.95398 -2.59336
    CHANNELS 3 Zrotation Xrotation Yrotation
    JOINT RightLeg
    {
      OFFSET 43.5653 0 0
      CHANNELS 3 Zrotation Xrotation Yrotation
      JOINT RightFoot
      {
        OFFSET 40.6238 0 0
        CHANNELS 3 Zrotation Xrotation Yrotation
        JOINT RightToeBase
        {
          OFFSET 12.7242 0 0
          CHANNELS 3 Zrotation Xrotation Yrotation
          End Site
          {
            OFFSET 0 0 0
          }
        }
      }
    }
  }
  JOINT Spine
  {
    OFFSET 0.165834 0.87714 6.61349
    CHANNELS 3 Zrotation Xrotation Yrotation
    JOINT Spine1
    {
      OFFSET 7.38962 1.71661e-005 0
      CHANNELS 3 Zrotation Xrotation Yrotation
      JOINT Spine2
      {
        OFFSET 11.9445 1.14441e-005 0
        CHANNELS 3 Zrotation Xrotation Yrotation
        JOINT Spine3
        {
          OFFSET 14.7254 4.19617e-005 0
          CHANNELS 3 Zrotation Xrotation Yrotation
          JOINT Spine4
          {
            OFFSET 10.9679 0 0
            CHANNELS 3 Zrotation Xrotation Yrotation
            JOINT RightShoulder
            {
              OFFSET 2.46616 -1.6653 3.69651
              CHANNELS 3 Zrotation Xrotation Yrotation
              JOINT RightArm
              {
                OFFSET 13.0012 0 0
                CHANNELS 3 Zrotation Xrotation Yrotation
                JOINT RightForeArm
                {
                  OFFSET 28.7848 1.52588e-005 0
                  CHANNELS 3 Zrotation Xrotation Yrotation
                  JOINT RightHand
                  {
                    OFFSET 26.5688 1.52588e-005 0
                    CHANNELS 3 Zrotation Xrotation Yrotation
                    End Site
                    {
                      OFFSET 0 0 0
                    }
                  }
                }
              }
            }
            JOINT LeftShoulder
            {
              OFFSET 2.38034 -1.29275 -3.75231
              CHANNELS 3 Zrotation Xrotation Yrotation
              JOINT LeftArm
              {
                OFFSET 16.3182 6.10352e-005 0
                CHANNELS 3 Zrotation Xrotation Yrotation
                JOINT LeftForeArm
                {
                  OFFSET 27.0901 0 0
                  CHANNELS 3 Zrotation Xrotation Yrotation
                  JOINT LeftHand
                  {
                    OFFSET 24.5451 1.52588e-005 0
                    CHANNELS 3 Zrotation Xrotation Yrotation
                    End Site
                    {
                      OFFSET 0 0 0
                    }
                  }
                }
              }
            }
            JOINT Neck
            {
              OFFSET 5.0226 -0.0266342 0
              CHANNELS 3 Zrotation Xrotation Yrotation
              JOINT Head
              {
                OFFSET 6.69363 2.86102e-005 0
                CHANNELS 3 Zrotation Xrotation Yrotation
                End Site
                {
                  OFFSET 0 0 0
                }
              }
            }
          }
        }
      }
    }
  }
}
MOTION
Frames:	12
Frame Time:	0.0333333
110.494 95.2274 -157.261 -82.9621 3.60336 -91.139 -170.761 24.156 95.8441 -32.7467 -39.1647 -9.39296 60.3029 10.5786 6.52998 28.7808 5.87926e-006 8.43505e-006 161.192 12.5559 79.5352 -6.68941 25.3753 10.1442 66.4334 10.8686 5.81597 28.7808 1.53539e-005 2.93537e-005 -0.483688 7.66266 -91.6652 11.4689 -1.51269 -5.70583 -0.213331 -1.76197 -5.63408 -22.648 0.268844 -5.89619 -2.63534 0.268827 -5.89622 109.485 -53.0601 -71.0328 26.0502 26.4807 -18.9939 -3.35172 -0.204584 -46.9946 -5.37983 -0.320005 -0.0162399 -86.6313 -28.5062 79.3831 -50.3747 2.82991 -1.00249 26.0475 38.6921 -37.6806 -18.1707 3.33107 -28.6757 49.2631 -24.1515 -59.6299 -32.1371 -1.61101 56.9097 
110.702 95.2671 -156.928 -84.4644 -1.53653 -89.8345 -170.035 23.9859 96.1476 -32.0257 -33.1853 -8.16112 60.7285 9.77263 5.93307 28.7808 5.87926e-006 8.43505e-006 161.195 8.67999 79.2249 -5.49238 30.7092 10.7428 65.8098 10.909 5.92217 28.7808 1.53539e-005 2.93537e-005 -0.782712 7.74829 -91.8534 11.2484 -2.20409 -6.39383 -0.4359 -2.48278 -6.29121 -22.8455 -0.185469 -6.75904 -2.83286 -0.185475 -6.75905 103.482 -45.553 -79.8238 25.3177 27.7117 -14.9 -3.33885 -0.189249 -43.2818 -5.37983 -0.320005 -0.0162399 -86.4396 -29.068 79.9102 -52.6291 3.33774 1.28564 24.1464 36.6308 -36.4065 -18.9231 3.62967 -29.4944 44.9896 -19.4674 -57.2901 -29.8253 1.34126 52.2779 
111.12 95.3301 -156.322 -84.4396 -6.90109 -89.0445 -170.333 24.7161 95.3179 -30.536 -28.4041 -6.79037 60.4678 9.026 5.44103 28.7808 5.87926e-006 8.43505e-006 161.876 7.49571 78.9086 -6.07154 35.8079 10.1579 65.1313 12.2096 6.72031 28.7808 1.53539e-005 2.93537e-005 -1.00741 7.91286 -91.67 10.9027 -2.52636 -6.21598 -0.780083 -2.79702 -6.09937 -23.198 -0.546081 -6.68571 -3.1854 -0.54613 -6.68574 102.777 -51.8852 -81.0595 21.7725 34.2738 -23.0515 -3.31492 -0.152362 -35.1985 -5.37983 -0.320005 -0.0162399 -84.5623 -27.1501 83.1961 -54.5197 5.82726 3.9463 27.6835 33.9852 -42.7378 -17.4241 2.1996 -21.6207 42.8867 -19.0378 -62.006 -28.956 2.83418 56.2925 
112.661 95.1125 -154.856 -79.5759 -14.3575 -89.3357 -174.135 29.5478 90.5392 -27.1947 -27.2013 -5.11714 58.534 10.37 6.42574 28.7808 5.87926e-006 8.43505e-006 161.707 11.5805 77.036 -6.66146 40.8819 10.1054 63.3818 13.8479 7.91644 28.7808 1.53539e-005 2.93537e-005 -1.42109 7.51122 -91.9914 11.701 -3.32502 -5.64171 0.0226975 -3.5697 -5.49045 -22.4237 -1.4797 -6.37718 -2.41109 -1.47968 -6.37717 97.0163 -51.3567 -89.8575 19.1833 38.9337 -20.7715 -3.31001 -0.143722 -33.344 -5.37983 -0.320005 -0.0162399 -82.2898 -25.4142 87.5565 -56.616 7.93846 5.14928 27.2719 30.9526 -44.4812 -17.1041 1.94898 -20.0418 40.4177 -18.7505 -66.8459 -31.6378 2.15159 59.9274 
112.963 95.2273 -154.178 -80.3427 -20.0684 -88.0482 -175.133 29.5717 89.308 -26.4685 -22.5653 -2.73965 57.6696 10.23 6.37126 28.7808 5.87926e-006 8.43505e-006 162.06 8.62006 76.6412 -6.31849 44.0551 8.79218 61.4221 15.8651 9.47008 28.7808 1.53539e-005 2.93537e-005 -1.41683 7.7067 -91.7843 11.3206 -3.23189 -5.47741 -0.357271 -3.46948 -5.33036 -22.8085 -1.43994 -6.19273 -2.79589 -1.43994 -6.19274 95.9362 -52.9969 -91.3249 16.9421 42.7633 -22.1503 -3.3016 -0.126329 -29.7809 -5.37983 -0.320005 -0.0162399 -81.6324 -22.3374 88.4989 -59.1154 10.0955 5.89435 24.1463 26.5898 -44.0449 -14.5691 1.44025 -18.6332 38.8823 -17.0898 -70.7636 -30.3587 6.15947 59.277 
113.039 95.6543 -152.952 -81.2305 -24.9087 -87.7711 -175.265 27.1599 87.3283 -23.178 -19.2078 -1.46497 57.2466 10.7361 6.70174 28.7808 5.87926e-006 8.43505e-006 163.331 7.75284 76.0118 -8.49503 46.7411 5.31529 58.7724 19.4548 12.4316 28.7808 1.53539e-005 2.93537e-005 -0.670988 7.75864 -90.5896 11.2529 -1.65782 -5.36452 -0.427697 -1.89201 -5.28668 -22.8743 0.0282819 -5.61406 -2.86162 0.0282688 -5.61406 102.569 -58.1902 -81.3924 14.6672 47.4036 -25.8967 -3.29503 -0.110246 -26.5783 -5.37983 -0.320005 -0.0162399 -83.372 -21.915 84.584 -57.4595 9.58066 5.61913 25.1308 26.5948 -45.4215 -14.2089 1.30393 -17.7605 46.4178 -24.682 -67.788 -36.2384 0.99526 53.8524 
113.271 95.7749 -152.23 -81.6458 -29.1524 -86.474 -175.471 26.4698 86.9142 -22.3189 -14.5768 -0.346642 57.0944 11.3497 7.09111 28.7808 5.87926e-006 8.43505e-006 162.397 5.55994 75.5653 -9.20376 46.5124 6.21234 56.2898 19.6873 13.2457 28.7808 1.53539e-005 2.93537e-005 -0.252145 7.82452 -90.617 11.1716 -0.967445 -5.2684 -0.509492 -1.19805 -5.22091 -22.9595 0.658271 -5.31575 -2.94685 0.658278 -5.31574 105.173 -59.4735 -77.7775 13.6854 49.1508 -25.7904 -3.29575 -0.112968 -27.0718 -5.37983 -0.320005 -0.0162399 -83.0682 -21.2519 85.1177 -57.8074 9.79245 6.58755 24.0518 24.8261 -45.6576 -13.4101 1.14237 -17.0818 47.4863 -25.926 -67.503 -37.5116 -0.0725242 53.4033 
113.404 96.1306 -151.321 -82.4933 -33.2293 -85.3251 -175.808 25.1303 86.6655 -21.3981 -11.2092 0.666194 56.6976 10.9142 6.83282 28.7808 5.87926e-006 8.43505e-006 162.954 3.18228 75.947 -8.83551 46.8995 4.22471 51.398 18.9461 14.0852 28.7808 1.53539e-005 2.93537e-005 0.127356 7.88233 -90.7531 11.09 -0.402693 -5.0174 -0.59053 -0.622876 -4.99492 -23.0504 1.12197 -4.90718 -3.03778 1.12195 -4.90719 101.245 -66.377 -83.1397 7.63355 58.406 -31.1944 -3.27987 -0.0550387 -16.0091 -5.37983 -0.320005 -0.0162399 -82.832 -19.6225 85.3034 -58.2989 9.62678 7.96775 25.0685 25.4919 -46.4146 -13.7367 1.0675 -15.9603 46.2431 -26.6848 -69.4043 -37.7385 -0.744584 54.201 
113.489 96.5929 -150.296 -83.6845 -36.9885 -84.4297 -175.879 22.9456 86.6373 -19.8459 -7.20001 1.5542 56.1273 10.8176 6.81645 28.7808 5.87926e-006 8.43505e-006 163.3 0.93233 76.3004 -8.30831 44.4192 1.70834 45.1597 17.2062 14.5031 28.7808 1.53539e-005 2.93537e-005 0.651343 7.96983 -90.7873 10.9603 0.568698 -4.42927 -0.718168 0.373398 -4.44996 -23.2016 1.8725 -4.05473 -3.18892 1.87251 -4.05473 108.925 -70.6872 -73.6511 9.02976 58.0374 -35.4478 -3.27817 -0.0459535 -14.2854 -5.37983 -0.320005 -0.0162399 -82.7455 -15.8573 84.6729 -59.2375 9.52556 8.21116 24.948 26.4564 -45.3006 -11.2658 0.758416 -15.2504 46.3085 -29.9641 -71.7015 -38.1845 -2.54334 54.3103 
113.723 97.1842 -149.197 -84.256 -40.5023 -83.3856 -175.96 20.5233 86.6534 -16.9763 -2.93443 2.11318 54.8068 11.3443 7.32106 28.7808 5.87926e-006 8.43505e-006 162.726 1.46051 76.0554 -11.6216 38.7994 0.498909 38.0678 14.8073 14.3769 28.7808 1.53539e-005 2.93537e-005 0.877848 8.06225 -91.3321 10.7687 0.8661 -4.27775 -0.909061 0.677144 -4.31164 -23.3993 2.11079 -3.82086 -3.38665 2.11079 -3.82087 106.435 -69.989 -76.6661 10.0501 56.7136 -33.3907 -3.2824 -0.0692757 -18.6463 -5.37983 -0.320005 -0.0162399 -82.0965 -16.3169 86.3617 -58.5726 7.88446 7.90171 24.0764 27.9153 -42.7238 -12.7602 1.14117 -17.8421 45.3842 -29.2496 -71.9539 -37.5915 -2.09751 54.3817 
113.856 97.5933 -148.153 -85.4717 -44.1801 -83.4989 -175.991 17.9669 86.2389 -15.0022 0.550016 2.48866 53.9155 10.9694 7.17052 28.7808 5.87926e-006 8.43505e-006 162.24 3.13166 75.061 -17.1411 33.3559 -0.651219 30.1102 13.5418 15.2988 28.7808 1.53539e-005 2.93537e-005 1.02645 8.19332 -91.5652 10.5044 1.1147 -4.05538 -1.17256 0.935307 -4.10041 -23.6708 2.28125 -3.53399 -3.65818 2.28127 -3.53398 102.656 -68.2506 -81.3269 9.78694 56.6598 -26.7736 -3.29782 -0.117011 -27.9352 -5.37983 -0.320005 -0.0162399 -81.6565 -17.1674 87.5982 -57.8986 5.96413 7.26031 16.4221 22.0042 -36.031 -16.2989 1.95907 -20.9773 45.5767 -28.6993 -71.0164 -37.3199 -1.51666 53.2676 
114.032 98.0283 -147.277 -87.4046 -47.6284 -83.931 -175.809 14.9935 86.3317 -12.9981 4.68734 2.90423 53.0758 10.8127 7.17132 28.7808 5.87926e-006 8.43505e-006 162.354 4.7915 75.0812 -21.3303 24.9122 -2.83215 19.392 9.18045 13.2499 28.7808 1.53539e-005 2.93537e-005 1.19533 8.37031 -92.0086 10.1338 1.40275 -3.76088 -1.542 1.23599 -3.81885 -24.0502 2.46767 -3.16637 -4.03751 2.46767 -3.16635 100.97 -68.3537 -83.4497 12.7279 53.3355 -29.9875 -3.29777 -0.117471 -27.9923 -5.37983 -0.320005 -0.0162399 -81.2548 -17.0339 88.5451 -55.4208 2.75262 5.50524 20.5431 33.4745 -33.3285 -18.1988 3.37192 -29.0228 46.0493 -29.1833 -69.2291 -37.0007 -2.32149 51.8984 
